<?xml version="1.0" standalone="no"?>
<!DOCTYPE svg PUBLIC "-//W3C//DTD SVG 20010904//EN"
 "http://www.w3.org/TR/2001/REC-SVG-20010904/DTD/svg10.dtd">
<svg version="1.0" xmlns="http://www.w3.org/2000/svg"
 width="448.000000pt" height="448.000000pt" viewBox="0 0 448.000000 448.000000"
 preserveAspectRatio="xMidYMid meet">
<metadata>
Created by potrace 1.11, written by Peter Selinger 2001-2013
</metadata>
<g transform="translate(0.000000,448.000000) scale(0.100000,-0.100000)"
fill="#000000" stroke="none">
<path d="M2162 4228 c-214 -15 -371 -47 -587 -120 -84 -28 -337 -147 -397
-186 -14 -9 -48 -30 -74 -46 -27 -16 -53 -33 -59 -38 -5 -5 -21 -17 -35 -29
-311 -250 -530 -566 -657 -949 -14 -41 -26 -79 -27 -85 -2 -5 -7 -28 -13 -50
-28 -105 -48 -218 -59 -333 -3 -32 -7 -70 -9 -87 -2 -16 -4 -69 -4 -117 l-1
-88 -39 -20 c-22 -10 -48 -31 -59 -44 -11 -14 -22 -23 -25 -20 -3 3 -5 -1 -4
-8 0 -7 -3 -32 -7 -56 -7 -33 -15 -46 -38 -58 -30 -16 -66 -79 -63 -111 4 -47
18 -83 41 -103 13 -13 24 -31 24 -39 0 -9 9 -35 20 -58 26 -58 72 -81 134 -66
43 9 45 9 66 -19 12 -16 41 -38 64 -48 34 -14 46 -27 60 -60 26 -66 103 -197
169 -290 200 -280 470 -513 765 -660 62 -31 109 -60 105 -65 -5 -4 -3 -5 3 -2
11 6 162 -40 174 -53 3 -3 12 -6 20 -7 8 0 43 -8 76 -17 76 -20 208 -44 294
-54 119 -13 444 -5 490 12 8 3 35 7 60 10 25 2 98 18 163 35 110 29 158 45
232 76 17 6 46 18 65 26 51 19 202 99 223 117 9 8 17 11 17 6 0 -5 4 -4 8 1 4
6 27 23 52 40 58 38 237 184 274 224 16 16 33 28 38 25 4 -3 8 0 8 6 0 6 28
44 63 84 34 40 71 84 83 97 33 39 168 248 204 314 35 65 119 266 138 330 46
156 58 209 76 340 2 17 5 32 6 35 1 3 1 15 0 27 -1 15 8 27 28 37 48 25 92 72
92 99 0 20 9 30 46 47 26 13 55 38 69 59 21 33 23 47 23 154 0 114 -1 120 -26
149 -19 20 -40 31 -67 35 -30 4 -50 16 -82 49 -29 30 -57 48 -88 56 -45 12
-45 12 -66 83 -11 38 -29 94 -40 123 -11 30 -16 59 -13 65 4 7 4 9 0 5 -4 -4
-34 44 -66 106 -74 145 -180 303 -284 423 -41 48 -202 202 -258 248 -32 25
-58 50 -58 56 0 5 -6 9 -13 9 -8 0 -33 14 -56 30 -84 61 -341 207 -341 194 0
-2 -13 2 -28 10 -68 35 -282 101 -366 112 -16 2 -45 8 -65 13 -78 20 -262 29
-399 19z"/>
</g>
</svg>
